<svg xmlns="http://www.w3.org/2000/svg" viewBox="0 0 16 16" width="16" height="16">
  <path fill="#E0234E" d="M7.41 14.72L1.35 11.11C1.18 11.01 1 10.76 1 10.54V3.33C1 3.12 1.18 2.87 1.35 2.77L7.4 0.07C7.57 -0.02 7.85 -0.02 8.02 0.07L14.07 2.77C14.25 2.87 14.43 3.12 14.43 3.33V10.54C14.43 10.76 14.25 11.01 14.07 11.11L8.02 14.72C7.93 14.77 7.83 14.79 7.72 14.79C7.61 14.79 7.5 14.77 7.41 14.72Z"/>
  <path fill="#FFFFFF" d="M11.97 7.94C11.97 7.84 11.95 7.74 11.86 7.69L7.92 5.31C7.87 5.29 7.82 5.26 7.76 5.26C7.71 5.26 7.66 5.29 7.6 5.31L3.66 7.69C3.57 7.74 3.55 7.84 3.55 7.94V11.25C3.55 11.35 3.57 11.45 3.66 11.5L7.6 13.88C7.66 13.9 7.71 13.93 7.76 13.93C7.82 13.93 7.87 13.9 7.92 13.88L11.86 11.5C11.95 11.45 11.97 11.35 11.97 11.25V7.94Z"/>
</svg>
