<svg xmlns="http://www.w3.org/2000/svg" width="16" height="16" viewBox="0 0 16 16">
  <path fill="#424242" d="M13.451 5.609l-.579-.939-1.068.812-.076.094c-.335.415-.927 1.341-1.124 2.876l-.021.111.033.139c.167.716.804 1.309 1.602 1.309.252 0 .484-.065.694-.171.264-.144.479-.385.629-.625.023-.029.047-.058.068-.089l.039-.054.001-.002.005-.008.002-.002.023-.034c.027-.036.056-.077.085-.114.11-.143.268-.305.401-.416l.087-.063.37-.264c.371-.26.685-.532.889-.851.139-.218.33-.666.33-1.057.001-.241-.075-.499-.211-.693zM9.444 11.439a3.436 3.436 0 0 1-.567 1.1 5.61 5.61 0 0 0 .987.26 5.5 5.5 0 0 0 1.567.123 5.836 5.836 0 0 0 2.208-.617 5.552 5.552 0 0 0 1.865-1.501 5.387 5.387 0 0 0 1.097-2.141 5.358 5.358 0 0 0 .116-1.765 5.336 5.336 0 0 0-.652-2.4c-.318-.564-.736-1.1-1.3-1.557a3.42 3.42 0 0 1-.328 1.731 3.537 3.537 0 0 1-1.191 1.274 3.536 3.536 0 0 1-1.672.505 3.378 3.378 0 0 1-1.764-.349l-.15-.76.959-.675.136.094c.232.264.494.434.796.545a.528.528 0 0 0 .202.033.46.46 0 0 0 .19-.04c.404-.188.536-.714.557-.908a3.39 3.39 0 0 1-.685-.878 3.38 3.38 0 0 1-.415-1.067 3.464 3.464 0 0 1-.052-1.179 3.398 3.398 0 0 1 .435-1.267 3.513 3.513 0 0 1 .968-1.046 3.406 3.406 0 0 1 1.334-.586c.431-.079.876-.079 1.354-.01a3.521 3.521 0 0 1 1.748.806l.111.102.127-.112c.178-.134.363-.262.547-.391.285-.207.576-.42.847-.645l.704-.579.035-.026.008-.066.006-.047.016-.125-.029-.126-.021-.08-.024-.095c-.326-1.1-1.222-2.068-2.281-2.633A5.583 5.583 0 0 0 7.996 1h-.01a5.527 5.527 0 0 0-3.751 1.466 5.403 5.403 0 0 0-1.65 3.504c-.011.708.008 1.249.116 1.856.106.592.341 1.209.697 1.755a3.343 3.343 0 0 1 .554-2.103 3.359 3.359 0 0 1 1.811-1.306 3.37 3.37 0 0 1 2.201.117c.257.092.493.21.708.352l.066.037.142-.114 1-.773.059-.169-.035-.088c-.242-.605-.634-1.097-1.158-1.451a3.353 3.353 0 0 0-1.68-.63c-.694-.053-1.316.101-1.952.419C4.182 3.489 3.31 4.506 3.066 5.776a5.525 5.525 0 0 0-.116 1.76 5.386 5.386 0 0 0 .65 2.382 5.579 5.579 0 0 0 1.522 1.779 5.474 5.474 0 0 0 2.209 1.104c.184.046.365.04.578.085a5.65 5.65 0 0 0 1.535-.115z"/>
</svg>
